<svg version="1.0" xmlns="http://www.w3.org/2000/svg"
 width="60" height="60" viewBox="0 0 512.000000 512.000000"
 preserveAspectRatio="xMidYMid meet">

<g transform="translate(0.000000,512.000000) scale(0.100000,-0.100000)"
fill="#000000" stroke="none">
<path d="M709 5097 c-24 -13 -57 -43 -74 -66 l-30 -43 -3 -419 -3 -419 1961 0
1961 0 -3 413 -3 412 -27 45 c-16 28 -43 55 -70 70 l-43 25 -1811 3 -1810 2
-45 -23z m2717 -191 c61 -28 115 -82 146 -145 33 -65 33 -187 0 -252 -113
-229 -432 -229 -544 0 -18 36 -23 63 -23 126 0 93 22 148 83 209 92 94 218
116 338 62z m585 -135 c24 -19 25 -19 48 0 74 60 172 -38 112 -112 -19 -23
-19 -24 0 -48 59 -75 -38 -172 -112 -112 -23 19 -24 19 -48 0 -75 -59 -171 37
-112 112 19 24 19 25 0 48 -60 74 37 171 112 112z"/>
<path d="M1676 3848 c-92 -13 -185 -103 -205 -198 -17 -78 -14 -366 4 -427 30
-102 118 -177 222 -190 100 -11 205 44 257 137 l31 55 3 192 c4 224 -6 279
-64 343 -69 76 -146 104 -248 88z m99 -154 c57 -27 65 -59 65 -254 0 -189 -7
-218 -60 -245 -64 -33 -141 -4 -160 62 -7 24 -10 101 -8 210 3 167 4 172 28
198 43 47 81 55 135 29z"/>
<path d="M3348 3849 c-57 -9 -104 -36 -151 -88 -57 -63 -62 -91 -62 -326 l0
-210 31 -55 c52 -93 157 -148 258 -136 108 12 202 99 225 206 14 66 14 344 0
410 -20 95 -112 184 -204 198 -28 4 -71 5 -97 1z m127 -179 l30 -30 3 -184 c4
-205 -3 -232 -58 -261 -58 -30 -127 -9 -155 46 -14 25 -16 62 -13 214 3 180 3
184 28 210 14 15 34 31 45 36 35 15 87 2 120 -31z"/>
<path d="M1010 3820 c-26 -26 -26 -81 0 -105 11 -10 42 -20 70 -23 l50 -5 0
-302 c0 -290 1 -303 20 -320 11 -10 34 -18 50 -18 16 0 39 8 50 18 19 17 20
30 20 377 0 432 12 398 -140 398 -87 0 -103 -3 -120 -20z"/>
<path d="M2200 3820 c-22 -22 -26 -60 -10 -90 11 -21 60 -40 101 -40 l29 0 0
-298 c0 -338 1 -342 69 -342 72 0 71 -8 71 393 0 431 12 397 -140 397 -87 0
-103 -3 -120 -20z"/>
<path d="M2680 3820 c-26 -26 -26 -81 -2 -103 10 -9 39 -20 65 -23 l46 -7 3
-297 c3 -277 4 -299 22 -319 13 -14 31 -21 57 -21 69 0 69 -2 69 397 0 426 12
393 -140 393 -87 0 -103 -3 -120 -20z"/>
<path d="M3870 3820 c-25 -25 -26 -71 -2 -99 12 -15 33 -23 70 -28 l52 -6 0
-302 c0 -280 1 -303 18 -318 25 -23 85 -22 105 1 15 17 17 57 17 375 0 431 12
397 -140 397 -87 0 -103 -3 -120 -20z"/>
<path d="M1652 2779 c-53 -27 -96 -68 -125 -123 -21 -39 -22 -53 -22 -266 0
-212 1 -227 22 -265 50 -94 126 -139 233 -140 86 0 132 18 188 73 66 67 72 91
72 332 0 236 -5 257 -66 329 -65 77 -209 106 -302 60z m178 -148 c43 -30 52
-79 48 -261 -3 -179 -10 -204 -64 -228 -48 -23 -93 -15 -130 22 l-34 34 0 189
c0 161 3 192 17 213 40 59 105 71 163 31z"/>
<path d="M2322 2774 c-28 -14 -65 -43 -82 -64 -54 -68 -60 -102 -60 -324 0
-224 8 -256 73 -324 54 -57 102 -77 187 -77 85 0 133 20 187 77 65 68 73 100
73 324 0 231 -8 269 -72 334 -55 57 -108 80 -189 80 -50 0 -77 -6 -117 -26z
m155 -124 c8 0 28 -14 44 -31 l29 -31 0 -195 0 -195 -34 -34 c-28 -28 -42 -34
-76 -34 -34 0 -48 6 -76 34 l-34 34 0 192 c0 178 2 194 21 221 20 28 71 51 97
43 8 -2 20 -4 29 -4z"/>
<path d="M1010 2770 c-12 -12 -20 -33 -20 -54 0 -47 37 -76 96 -76 l44 0 0
-304 0 -305 26 -20 c34 -26 54 -26 88 0 l26 20 0 359 c0 433 12 400 -142 400
-85 0 -101 -3 -118 -20z"/>
<path d="M2895 2765 c-53 -52 -20 -115 63 -123 l52 -5 0 -294 c0 -188 4 -301
11 -314 26 -49 107 -43 129 10 7 19 10 133 8 370 l-3 343 -24 19 c-19 16 -40
19 -118 19 -86 0 -96 -2 -118 -25z"/>
<path d="M3395 2765 c-53 -52 -20 -115 63 -123 l52 -5 0 -299 0 -299 25 -24
c27 -28 42 -30 79 -14 45 21 47 43 44 408 l-3 343 -24 19 c-19 16 -40 19 -118
19 -86 0 -96 -2 -118 -25z"/>
<path d="M3872 2767 c-28 -29 -29 -78 -2 -102 11 -10 42 -20 70 -23 l50 -5 0
-303 0 -303 26 -20 c34 -26 54 -26 88 0 l26 20 0 360 c0 433 12 399 -138 399
-90 0 -100 -2 -120 -23z"/>
<path d="M486 1068 c33 -58 161 -206 273 -318 142 -141 313 -278 464 -369 l89
-53 26 25 c48 47 90 57 227 57 l125 0 0 25 c0 38 35 99 76 133 49 40 101 52
233 52 61 0 111 4 111 9 0 11 48 376 55 419 l6 32 -846 0 c-674 0 -845 -3
-839 -12z"/>
<path d="M2950 1078 c0 -2 14 -101 30 -221 17 -120 30 -223 30 -228 0 -5 51
-9 113 -9 136 0 200 -16 244 -62 34 -35 63 -94 63 -128 0 -19 6 -20 125 -20
136 0 167 -8 222 -54 l33 -28 62 38 c183 109 377 263 523 415 89 93 195 218
229 272 l18 27 -846 0 c-465 0 -846 -1 -846 -2z"/>
</g>
</svg>